<?xml version="1.0" standalone="no"?><!DOCTYPE svg PUBLIC "-//W3C//DTD SVG 1.1//EN" "http://www.w3.org/Graphics/SVG/1.1/DTD/svg11.dtd"><svg t="1585644247088" class="icon" viewBox="0 0 1024 1024" version="1.1" xmlns="http://www.w3.org/2000/svg" p-id="3594" xmlns:xlink="http://www.w3.org/1999/xlink" width="200" height="200"><defs><style type="text/css"></style></defs><path d="M1003.52 0H20.48a20.48 20.48 0 0 0 0 40.96h983.04a20.48 20.48 0 0 0 0-40.96zM849.92 327.68H20.48a20.48 20.48 0 0 0 0 40.96h829.44a20.48 20.48 0 0 0 0-40.96zM696.32 655.36H20.48a20.48 20.48 0 0 0 0 40.96h675.84a20.48 20.48 0 0 0 0-40.96zM440.32 983.04H20.48a20.48 20.48 0 0 0 0 40.96h419.84a20.48 20.48 0 0 0 0-40.96z" p-id="3595"></path></svg>