<?xml version="1.0" standalone="no"?><!DOCTYPE svg PUBLIC "-//W3C//DTD SVG 1.1//EN" "http://www.w3.org/Graphics/SVG/1.1/DTD/svg11.dtd"><svg t="1587630452953" class="icon" viewBox="0 0 1024 1024" version="1.1" xmlns="http://www.w3.org/2000/svg" p-id="5161" xmlns:xlink="http://www.w3.org/1999/xlink" width="200" height="200"><defs><style type="text/css"></style></defs><path d="M388.5 191.8h248.8c177.8 0 321.9 144.1 321.9 321.9 0 177.8-144.1 321.9-321.9 321.9H388.5c-177.8 0-321.9-144.1-321.9-321.9 0-177.8 144.1-321.9 321.9-321.9z" fill="#7F740E" p-id="5162"></path><path d="M119.4 688.4c57.4 88.6 157 147.2 270.3 147.2h248.8c113.4 0 213-58.7 270.3-147.2H119.4z" fill="#6D5F0B" p-id="5163"></path><path d="M637.2 777.1c145.2 0 263.4-118.2 263.4-263.4S782.4 250.3 637.2 250.3H388.5c-145.2 0-263.4 118.2-263.4 263.4s118.2 263.4 263.4 263.4h248.7m0 58.5H388.5c-177.8 0-321.9-144.1-321.9-321.9 0-177.8 144.1-321.9 321.9-321.9h248.8c177.8 0 321.9 144.1 321.9 321.9-0.1 177.8-144.2 321.9-322 321.9z" fill="#3C3A50" p-id="5164"></path><path d="M637.2 191.8c177.8 0 321.9 144.1 321.9 321.9 0 177.8-144.1 321.9-321.9 321.9-177.8 0-321.9-144.1-321.9-321.9 0-177.8 144.1-321.9 321.9-321.9z" fill="#78FF39" p-id="5165"></path><path d="M637.2 777.1c145.2 0 263.4-118.2 263.4-263.4S782.4 250.3 637.2 250.3 373.8 368.5 373.8 513.7 492 777.1 637.2 777.1m0 58.5c-177.8 0-321.9-144.1-321.9-321.9 0-177.8 144.1-321.9 321.9-321.9 177.8 0 321.9 144.1 321.9 321.9 0 177.8-144.1 321.9-321.9 321.9z" fill="#3C3A50" p-id="5166"></path><path d="M637.2 308.8c-16.2 0-29.3 13.1-29.3 29.3v58.5c0 16.2 13.1 29.3 29.3 29.3s29.3-13.1 29.3-29.3v-58.5c0-16.2-13.1-29.3-29.3-29.3zM749.6 478.4l50.7-29.3c14-8.1 18.8-26 10.7-40-8.1-14-26-18.8-40-10.7l-50.7 29.3c-14 8.1-18.8 26-10.7 40 8.1 14 26 18.8 40 10.7zM800.3 569.9l-50.7-29.3c-14-8.1-31.9-3.3-40 10.7-8.1 14-3.3 31.9 10.7 40l50.7 29.3c14 8.1 31.9 3.3 40-10.7 8.1-14 3.3-31.9-10.7-40zM637.2 593.1c-16.2 0-29.3 13.1-29.3 29.3v58.5c0 16.2 13.1 29.3 29.3 29.3s29.3-13.1 29.3-29.3v-58.5c0-16.1-13.1-29.3-29.3-29.3zM524.8 540.6l-50.7 29.3c-14 8.1-18.8 26-10.7 40 8.1 14 26 18.8 40 10.7l50.7-29.3c14-8.1 18.8-26 10.7-40-8.1-14-26-18.8-40-10.7zM554.1 427.7l-50.7-29.3c-14-8.1-31.9-3.3-40 10.7-8.1 14-3.3 31.9 10.7 40l50.7 29.3c14 8.1 31.9 3.3 40-10.7 8.1-14 3.3-31.9-10.7-40z" fill="#32CE32" p-id="5167"></path><path d="M507.7 573.3c9.3 13.2 6.1 31.5-7.2 40.8-13.2 9.3-31.5 6.1-40.8-7.2-11.3-16.2-20.2-34.2-26-53.4-4.7-15.5 4-31.8 19.5-36.5 15.5-4.7 31.8 4 36.5 19.5 4 13.1 10.1 25.5 18 36.8m-17.9-111.7c-4.7 15.5-21 24.2-36.5 19.5-15.5-4.7-24.2-21-19.5-36.5 23.8-78.5 97.7-135.8 185.2-135.8 16.2 0 29.3 13.1 29.3 29.3 0 16.2-13.1 29.3-29.3 29.3-59.2 0-112.4 38.8-129.2 94.2" fill="#FFFFFF" p-id="5168"></path></svg>