<?xml version="1.0" standalone="no"?><!DOCTYPE svg PUBLIC "-//W3C//DTD SVG 1.1//EN" "http://www.w3.org/Graphics/SVG/1.1/DTD/svg11.dtd"><svg t="1580884143945" class="icon" viewBox="0 0 1024 1024" version="1.1" xmlns="http://www.w3.org/2000/svg" p-id="5307" data-darkreader-inline-fill="" xmlns:xlink="http://www.w3.org/1999/xlink" width="200" height="200"><defs><style type="text/css"></style></defs><path d="M714.971429 228.571429c-3.657143-31.085714-27.428571-56.685714-60.342858-60.342858-226.742857-18.285714-235.885714-7.314286-243.2 0l-310.857142 309.028572c-21.942857 21.942857-21.942857 56.685714 0 76.8L329.142857 782.628571c10.971429 10.971429 25.6 16.457143 38.4 16.457143 14.628571 0 27.428571-5.485714 38.4-16.457143l309.028572-309.028571c9.142857-9.142857 18.285714-18.285714 0-245.028571z m-27.428572 221.257142L380.342857 757.028571c-7.314286 7.314286-18.285714 7.314286-25.6 0L126.171429 528.457143c-7.314286-7.314286-7.314286-18.285714 0-25.6L433.371429 195.657143c14.628571-3.657143 78.628571-1.828571 217.6 9.142857 14.628571 1.828571 25.6 12.8 25.6 25.6 12.8 140.8 14.628571 204.8 10.971428 219.428571zM448 782.628571c-3.657143 3.657143-5.485714 7.314286-5.485714 12.8 0 5.485714 1.828571 9.142857 5.485714 12.8 3.657143 3.657143 9.142857 5.485714 12.8 5.485715s9.142857-1.828571 12.8-5.485715c3.657143-3.657143 5.485714-7.314286 5.485714-12.8 0-5.485714-1.828571-9.142857-5.485714-12.8-7.314286-5.485714-20.114286-5.485714-25.6 0z" fill="#cdcdcd" p-id="5308" style="--darkreader-inline-fill:#c0bbb1;" data-darkreader-inline-fill=""></path><path d="M777.142857 288.914286c-5.485714-9.142857-16.457143-12.8-25.6-7.314286-9.142857 5.485714-12.8 16.457143-7.314286 25.6 45.714286 80.457143 53.028571 106.057143 54.857143 111.542857l-146.285714 407.771429c-1.828571 3.657143-5.485714 7.314286-9.142857 10.971428-3.657143 1.828571-9.142857 1.828571-14.628572 0l-111.542857-40.228571c-9.142857-3.657143-20.114286 1.828571-23.771428 10.971428-3.657143 9.142857 1.828571 20.114286 10.971428 23.771429l111.542857 40.228571c5.485714 1.828571 12.8 3.657143 18.285715 3.657143 7.314286 0 16.457143-1.828571 23.771428-5.485714 12.8-5.485714 23.771429-16.457143 27.428572-31.085714l148.114285-411.428572c5.485714-9.142857 9.142857-18.285714-56.685714-138.971428zM557.714286 259.657143c-38.4 0-69.485714 31.085714-69.485715 69.485714s31.085714 69.485714 69.485715 69.485714 69.485714-31.085714 69.485714-69.485714-31.085714-69.485714-69.485714-69.485714z m0 100.571428c-18.285714 0-32.914286-14.628571-32.914286-32.914285s14.628571-32.914286 32.914286-32.914286 32.914286 14.628571 32.914285 32.914286-14.628571 32.914286-32.914285 32.914285z" fill="#cdcdcd" p-id="5309" style="--darkreader-inline-fill:#c0bbb1;" data-darkreader-inline-fill=""></path></svg>