<?xml version="1.0" standalone="no"?><!DOCTYPE svg PUBLIC "-//W3C//DTD SVG 1.1//EN" "http://www.w3.org/Graphics/SVG/1.1/DTD/svg11.dtd"><svg t="1580883752402" class="icon" viewBox="0 0 1024 1024" version="1.1" xmlns="http://www.w3.org/2000/svg" p-id="4084" data-darkreader-inline-fill="" xmlns:xlink="http://www.w3.org/1999/xlink" width="200" height="200"><defs><style type="text/css"></style></defs><path d="M749.00992 640.84992c40.32-29.21984 66.99008-78.49984 66.99008-133.12 0-87.25504-67.84-158.50496-150.83008-158.50496-83.2 0-150.82496 73.6-150.82496 160.85504 0 54.4 26.45504 102.60992 66.34496 131.2-78.08 34.99008-133.96992 115.84-136.32 209.71008v17.28c0.85504 12.8 11.30496 21.12 21.76 21.12 10.88 0 21.97504-11.52 21.97504-25.18016v-6.81984c0-102.62016 79.78496-187.10016 177.06496-188.38016 97.50016 1.28 177.07008 85.76 177.07008 188.38016v6.81984c0 13.87008 8.75008 23.04 21.96992 23.04 13.23008 0 21.98016-9.16992 21.98016-23.04v-6.81984c-0.22016-97.07008-56.96-180.91008-137.18016-216.54016z m-83.84-20.68992c-59.08992 0-107.08992-50.56-107.08992-112.64s48.20992-112.64 107.08992-112.64c59.10016 0 107.10016 50.56 107.10016 112.64s-48 112.64-107.10016 112.64z" fill="#bfbfbf" p-id="4085" style="--darkreader-inline-fill:#b4aea4;" data-darkreader-inline-fill="" data-spm-anchor-id="a313x.7781069.0.i6" class="selected"></path><path d="M877.44 925.87008H146.56c-51.41504 0-93.22496-41.82016-93.22496-93.23008V319.57504c0-51.41504 41.81504-93.22496 93.22496-93.22496h731.08992c51.42016 0 93.23008 41.81504 93.23008 93.22496v513.28c-0.20992 51.19488-42.03008 93.01504-93.44 93.01504zM146.56 286.08c-18.34496 0-33.49504 14.93504-33.49504 33.49504v513.28c0 18.35008 14.93504 33.50016 33.49504 33.50016h731.08992c18.35008 0 33.50016-14.94016 33.50016-33.50016V319.57504c0-18.34496-14.94016-33.49504-33.50016-33.49504H146.56z" fill="#9B9B9B" p-id="4086" style="--darkreader-inline-fill:#928e85;" data-darkreader-inline-fill=""></path><path d="M159.36 456.74496l114.13504 119.89504L450.56 401.70496l-34.77504-36.69504-143.56992 139.73504-79.36-83.2-33.49504 35.2z" fill="#9B9B9B" p-id="4087" style="--darkreader-inline-fill:#928e85;" data-darkreader-inline-fill=""></path><path d="M152.53504 439.04c0 13.66528 10.50624 24.74496 23.46496 24.74496s23.46496-11.07968 23.46496-24.74496-10.50624-24.74496-23.46496-24.74496-23.46496 11.07968-23.46496 24.74496zM408.53504 382.93504c-0.01024 14.14144 10.96704 25.61024 24.51456 25.62048s24.54016-11.43808 24.5504-25.57952v-0.04096c0.01024-14.13632-10.96704-25.60512-24.51456-25.62048-13.54752-0.01024-24.54016 11.4432-24.5504 25.57952v0.04096z" fill="#9B9B9B" p-id="4088"  style="--darkreader-inline-fill:#928e85;" data-darkreader-inline-fill=""></path></svg>