<?xml version="1.0" standalone="no"?><!DOCTYPE svg PUBLIC "-//W3C//DTD SVG 1.1//EN" "http://www.w3.org/Graphics/SVG/1.1/DTD/svg11.dtd"><svg t="1580883555523" class="icon" viewBox="0 0 1152 1024" version="1.1" xmlns="http://www.w3.org/2000/svg" p-id="2098" data-darkreader-inline-fill="" xmlns:xlink="http://www.w3.org/1999/xlink" width="225" height="200"><defs><style type="text/css"></style></defs><path d="M1064.01348 772.4c55-54.2 88-122.2 88-196.4 0-160-153-292.2-352.4-315.8C736.61348 145 588.61348 64 416.01348 64 186.21348 64 0.01348 207.2 0.01348 384c0 74 33 142 88 196.4-30.6 61.4-74.6 109-75.4 109.8-12.6 13.4-16.2 33-8.8 50 7.2 17 24 28 42.4 28 107 0 193.4-40.4 250.4-77.6 18.4 4.2 37.4 7.4 56.8 9.8C416.21348 815.2 563.61348 896 736.01348 896c41.6 0 81.6-4.8 119.6-13.6C912.61348 919.4 998.81348 960 1106.01348 960c18.4 0 35-11 42.4-28 7.2-17 3.8-36.6-8.8-50-0.8-0.6-45-48.2-75.6-109.6z m-785.6-184.6L244.21348 610c-28.2 18.2-57 32.6-86.2 42.8 5.4-9.4 10.8-19.4 16-29.6l31-62.2L155.41348 512C128.41348 485.2 96.01348 441.4 96.01348 384c0-121.4 146.6-224 320-224s320 102.6 320 224-146.6 224-320 224c-33 0-66-3.8-98-11.2l-39.6-9zM996.61348 704l-49.4 48.8 31 62.2c5.2 10.2 10.6 20.2 16 29.6-29.2-10.2-58-24.6-86.2-42.8l-34.2-22.2-39.8 9.2c-32 7.4-65 11.2-98 11.2-108 0-204.4-40.2-262.6-99.4C676.01348 679 832.01348 545.8 832.01348 384c0-6.8-0.8-13.4-1.4-20C959.41348 393 1056.01348 477.6 1056.01348 576c0 57.4-32.4 101.2-59.4 128z" p-id="2099"></path></svg>