<?xml version="1.0" standalone="no"?><!DOCTYPE svg PUBLIC "-//W3C//DTD SVG 1.1//EN" "http://www.w3.org/Graphics/SVG/1.1/DTD/svg11.dtd"><svg t="1581070121726" class="icon" viewBox="0 0 1024 1024" version="1.1" xmlns="http://www.w3.org/2000/svg" p-id="2759" data-darkreader-inline-fill="" xmlns:xlink="http://www.w3.org/1999/xlink" width="200" height="200"><defs><style type="text/css"></style></defs><path d="M565.824 512l384.704-384.64a48.704 48.704 0 0 0 1.024-68.8 48.704 48.704 0 0 0-68.8 0.96L465.344 476.736a49.92 49.92 0 0 0-11.136 17.408c-0.896 2.112-0.896 4.48-1.472 6.72-0.768 3.648-1.984 7.296-1.984 11.136s1.152 7.424 1.984 11.136c0.576 2.176 0.576 4.608 1.472 6.72a49.28 49.28 0 0 0 11.136 17.408l417.344 417.28a48.64 48.64 0 0 0 68.8 1.024 48.64 48.64 0 0 0-1.024-68.736L565.824 512z" p-id="2760"></path><path d="M173.76 512l384.704-384.64a48.704 48.704 0 0 0 1.024-68.8 48.64 48.64 0 0 0-68.864 0.896l-417.28 417.216a49.92 49.92 0 0 0-11.136 17.408c-0.896 2.112-0.896 4.48-1.408 6.784-0.832 3.648-2.048 7.296-2.048 11.136s1.216 7.424 2.048 11.072c0.576 2.24 0.576 4.608 1.408 6.784a49.28 49.28 0 0 0 11.136 17.408l417.28 417.216a48.64 48.64 0 0 0 68.864 1.088 48.704 48.704 0 0 0-0.96-68.8L173.76 512z" p-id="2761"></path></svg>