<svg xmlns="http://www.w3.org/2000/svg" width="1600" height="951" viewBox="0 0 1600 951">
    <path fill="#F6F6F6" fill-rule="evenodd" d="M1414.52 596.28c12.264 4.019 24.657 7.652 37.01 11.399 25.68 7.784 51.201 16.028 76.447 25.156 25.045 9.054 49.014 20.158 72.023 33.108v31.84a286.985 286.985 0 0 0-40.213-18.21c-19.293-6.998-38.79-13.313-58.597-18.626-15.645-4.197-31.423-7.885-47.271-11.283-20.79-4.457-41.575-8.948-62.224-14.031-14.265-3.512-28.347-7.69-42.352-12.103-19.813-6.243-39.846-11.645-60.069-16.373-5.175-1.208-10.317-2.56-15.49-3.785-14.053-3.328-28.204-6.152-42.575-7.697-14.617-1.576-29.26-2.69-43.983-2.236-4.81.148-9.628.1-14.436.271-3.539.127-7.07.457-10.603.71-2.02.144-4.037.368-6.059.461-9.116.41-18.165 1.428-27.215 2.603-22.61 2.93-45.034 6.998-67.533 10.595-12.253 1.955-24.5 3.944-36.72 6.087-19.702 3.455-39.23 7.783-58.795 11.93-18.587 3.94-37.303 7.155-56.169 9.423-15.109 1.816-30.286 2.458-45.505 2.084-1.518-.04-3.04-.047-4.561-.055-11.165-.051-22.219-1.281-33.27-2.81-11.074-1.533-21.894-4.124-32.626-7.1-11.243-3.117-22.078-7.392-32.756-12.065-15.328-6.708-29.962-14.76-44.586-22.842-5.979-3.303-11.986-6.576-18.125-9.565-14.966-7.291-30.877-11.105-47.411-12.727-9.103-.896-18.186-1.337-27.308-.788-15.453.928-30.691 3.189-45.737 6.915-20.708 5.13-40.731 12.165-60.266 20.675-16.778 7.307-32.523 16.466-47.547 26.83-16.258 11.214-31.947 23.213-47.539 35.334-10.192 7.923-20.367 15.873-30.63 23.704-9.863 7.525-19.915 14.793-30.407 21.429-10.067 6.368-20.478 12.104-31.39 16.916-14.724 6.494-30.087 10.35-46.108 11.983-13.726 1.4-27.263.439-40.89-1.296-13.688-1.745-26.731-5.598-39.59-10.305-5.941-2.174-11.836-4.482-17.697-6.868-14.07-5.728-28.282-11.07-42.75-15.722-11.1-3.569-22.43-6.219-33.886-8.327-3.73-.688-7.52-1.07-11.294-1.481-6.794-.74-13.592-1.471-20.4-2.071-9.586-.839-19.172-1.744-28.779-2.272-9.86-.541-19.742-.727-29.617-.957-6.34-.146-12.68-.163-19.02-.11v-54.952c22.471-1.408 44.961-1.998 67.473-1.3 11.63.36 23.3.556 34.877 2.09 4.512.6 9.066.664 13.589 1.405 11.296 1.843 22.215 5.009 32.994 8.731 13.191 4.558 25.78 10.488 38.204 16.797 11.285 5.729 22.524 11.562 33.946 17.011 13.043 6.224 26.586 11.177 40.65 14.65 27.597 6.819 54.23 4.066 80.033-7.767 12.23-5.609 23.955-12.085 35.07-19.64 8.791-5.977 17.558-11.996 26.175-18.219 20.115-14.524 40.292-28.954 60.846-42.85 16.813-11.369 34.395-21.402 52.93-29.673 14.8-6.603 29.908-12.463 45.51-16.96 5.592-1.613 11.182-3.244 16.813-4.72 8.822-2.31 17.767-3.97 26.808-5.249 8.792-1.245 17.614-2.048 26.47-2.268 14.75-.37 29.355 1.177 43.707 4.561 9.38 2.212 18.494 5.33 27.061 9.835 5.377 2.824 10.689 5.774 16.021 8.684 7.78 4.242 15.474 8.638 23.338 12.713 14.877 7.705 30.332 14.077 46.57 18.265 13.495 3.479 27.217 5.95 41.21 6.37 13.423.402 26.804.184 40.22-1.11 21.014-2.032 41.482-6.547 61.811-11.936 21.291-5.642 42.372-12.01 63.418-18.486 19.37-5.959 39-10.936 58.768-15.366 14.328-3.21 28.709-6.194 42.987-9.603 11.082-2.646 22.177-5.203 33.34-7.477 14.408-2.932 28.937-4.986 43.579-6.317 14.654-1.332 29.322-1.792 44.026-1.175 12.946.541 25.695 2.422 38.333 5.216 11.903 2.633 23.328 6.733 34.78 10.797a590.77 590.77 0 0 1 56.8 23.515c21.503 10.252 43.52 19.262 66.162 26.68zm77.558-52.184c5.48 2.617 11.154 4.819 16.68 7.332 11.061 5.034 22.107 10.095 33.11 15.244 13.996 6.55 27.6 13.864 40.915 21.69 5.76 3.387 11.494 6.817 17.216 10.268v33.143a704.043 704.043 0 0 0-24.963-13.716c-16.158-8.456-32.774-15.97-49.724-22.69-20.468-8.117-41.016-16.05-61.654-23.727-12.338-4.59-24.63-9.301-36.837-14.216-23.07-9.287-45.18-20.464-65.939-34.235-11.39-7.556-22.926-14.893-34.416-22.297-15.375-9.905-31.698-17.978-48.726-24.604-13.055-5.078-26.607-8.138-40.61-9.093-3.791-.258-7.581-.615-11.376-.728-12.175-.369-24.285.476-36.372 1.964-22.169 2.724-43.905 7.454-65.306 13.779-20.392 6.027-40.794 12.03-61.175 18.097-9.217 2.743-18.442 5.472-27.585 8.454-19.743 6.44-39.093 13.948-58.36 21.683-21.852 8.77-43.864 17.133-66.248 24.45-16.144 5.279-32.66 9.075-49.507 11.463-9.04 1.278-18.098 2.181-27.211 2.44-10.41.293-20.727-.806-31.035-2.19-11.103-1.487-21.854-4.259-32.348-8.08-8.807-3.208-17.39-6.9-25.737-11.205-9.458-4.874-18.62-10.26-27.82-15.583-9.011-5.217-18.333-9.694-28.292-12.838-9.453-2.987-19.101-4.94-28.955-5.924a441.928 441.928 0 0 0-9.083-.82c-12.946-1.034-25.827-.064-38.648 1.604-28.568 3.72-55.808 12.32-82.462 22.926-25.022 9.956-48.538 22.786-71.238 37.217-24.144 15.353-47.81 31.42-71.781 47.029-11.89 7.744-24.132 14.89-37.149 20.624-8.124 3.578-16.45 6.554-25.153 8.448-14.886 3.242-29.651 2.84-44.388-.981-12.115-3.14-23.279-8.409-34.146-14.489-11.954-6.685-23.223-14.41-34.586-22.009-10.732-7.175-21.565-14.192-32.725-20.701a182.354 182.354 0 0 0-39.602-17.201c-9.963-2.994-20.086-5.017-30.522-5.765-15.706-1.13-31.385-.729-47.088-.283-12.67.36-25.303 1.346-37.91 2.407-7.768.655-15.557 1.19-23.322 1.95V518.15c9.88-1.492 19.761-2.992 29.684-4.097 12.577-1.399 25.128-3.056 37.766-3.997 8.594-.642 17.177-1.247 25.786-1.393 5.825-.1 11.65-.04 17.475.015 10.747.102 21.103 2.456 31.272 5.68 18.819 5.963 35.627 15.64 51.09 27.784a591.987 591.987 0 0 1 30.211 25.403c9.974 8.975 20.204 17.657 30.967 25.692 7.12 5.315 14.643 9.937 22.767 13.6 9.083 4.097 18.587 6.615 28.434 7.832 4.781.59 9.618.357 14.415-.129 9.371-.95 18.427-3.223 27.26-6.475 7.62-2.803 15.043-6.074 22.141-9.97 9.76-5.36 19.495-10.8 28.954-16.665 20.871-12.941 41.822-25.735 63.071-38.052 11.614-6.73 23.281-13.34 35.315-19.293a458.901 458.901 0 0 1 50.325-21.282c16.243-5.751 32.711-10.719 49.585-14.257 16.658-3.493 33.51-5.457 50.536-5.074 17.295.39 34.32 2.684 50.686 8.7 6.433 2.365 12.667 5.124 18.568 8.61 2.833 1.674 5.66 3.361 8.44 5.12 9.637 6.103 19.577 11.714 29.914 16.484 13.81 6.378 28.093 11.475 43.264 13.804 18.954 2.908 37.846 2.716 56.72-.528 24.853-4.27 48.55-12.2 71.523-22.47 21.496-9.61 42.797-19.624 63.974-29.913 22.553-10.959 45.501-21.017 68.997-29.792 23.712-8.857 47.42-17.733 71.247-26.272 18.6-6.665 37.634-11.976 56.939-16.201 12.862-2.817 25.87-4.882 39.057-5.56 1.516-.078 3.035-.176 4.55-.296 20.544-1.621 40.282 1.39 59.449 9.202 18.573 7.572 34.693 18.661 49.479 31.95 11.857 10.66 23.754 21.27 35.624 31.916 4.53 4.06 9.307 7.797 14.235 11.366 16.034 11.61 33.074 21.498 50.771 30.363 16.989 8.507 34.458 15.956 51.587 24.14zm-54.682-239.561c19.956 13.883 40.281 27.19 61.126 39.7 11.287 6.772 22.644 13.423 34.032 20.023 15.557 9.013 30.92 18.335 45.866 28.32 7.161 4.786 14.36 9.51 21.58 14.2v52.172c-2.655-1.646-5.325-3.265-7.963-4.935-16.47-10.427-32.934-20.84-50.042-30.221-16.644-9.126-33.106-18.585-49.599-27.986-4.612-2.631-9.052-5.568-13.561-8.379-3.436-2.143-6.905-4.238-10.274-6.486a3024.223 3024.223 0 0 1-25.172-16.985c-2.716-1.854-5.267-3.952-7.98-5.812-9.203-6.304-17.89-13.274-26.43-20.418-8.543-7.141-16.93-14.47-25.39-21.711-8.65-7.407-17.31-14.795-26.486-21.567-10.225-7.545-21.077-14.016-32.664-19.217-9.977-4.476-20.455-7.44-31.194-9.413-16.276-2.992-32.628-3.895-49.153-2.037-15.365 1.73-30.618 4.085-45.752 7.177-29.043 5.934-57.634 13.574-85.809 22.818-19.24 6.311-38.595 12.271-57.944 18.247-27.353 8.448-54.066 18.657-80.717 29.05-18.634 7.265-37.426 14.099-56.58 19.894-13.576 4.11-27.34 7.412-41.384 9.597-8.516 1.325-17.029 2.5-25.607 3.316a214.172 214.172 0 0 1-29.606.746c-6.57-.287-13.129-.987-19.676-1.676-14.666-1.545-28.904-5.036-42.882-9.666a618.4 618.4 0 0 0-13.756-4.358c-10.715-3.27-21.694-5.09-32.88-5.356a350.341 350.341 0 0 0-23.547.208c-5.555.243-11.105.967-16.61 1.79-11.778 1.758-23.392 4.31-34.89 7.43-21.525 5.84-42.548 13.143-63.34 21.16-24.335 9.387-48.427 19.339-72.138 30.193-12.655 5.797-25.175 11.886-37.753 17.854-21.96 10.415-44.08 20.47-66.804 29.135-12.813 4.887-25.974 8.602-39.589 10.326-16.01 2.023-31.842 1.11-47.307-3.983-7.5-2.47-14.574-5.803-21.306-9.884-12.165-7.37-23.368-16.028-33.998-25.45-10.986-9.74-22.214-19.198-33.726-28.311-13.79-10.916-28.967-19.47-45.347-25.864-7.564-2.954-15.432-4.924-23.437-6.262-14.843-2.481-29.716-2.502-44.644-.587-10.57 1.353-20.953 3.62-31.33 5.907a3581.38 3581.38 0 0 0-51.083 11.66C16.453 390.83 8.23 392.65 0 394.431v-33.269c1.423-.33 2.848-.647 4.266-.989 15.006-3.612 29.89-7.74 44.826-11.641 19.096-4.99 38.03-10.628 57.365-14.69 13.943-2.927 28.077-4.153 42.293-3.565 16.58.686 32.523 4.476 47.963 10.611 13.506 5.368 26.05 12.414 37.753 20.935 10.228 7.446 20.206 15.233 30.337 22.814 10.34 7.739 20.9 15.172 32.137 21.569 13.62 7.756 28.314 12.123 43.928 13.484 9.107.794 18.197.88 27.318.148 7.066-.567 14.149-.774 21.192-1.765 4.272-.602 8.516-1.338 12.678-2.35 16.008-3.9 31.658-8.917 46.887-15.252 21.738-9.046 43.105-18.919 64.527-28.671 19.349-8.813 38.88-17.21 58.375-25.694 14.858-6.463 29.785-12.748 44.928-18.505 20.354-7.735 40.921-14.883 62.172-19.819 18.298-4.25 36.796-6.992 55.664-6.844 7.634.06 15.165.907 22.68 2.008 4.004.586 7.954 1.53 11.94 2.234 9.477 1.674 18.97 3.086 28.603 3.675 8.345.51 16.671 1.13 25.039 1.112 13.19-.023 26.295-1.093 39.403-2.492 11.095-1.185 22.083-3 33.032-5.019 11.448-2.109 22.724-5.053 33.954-8.137 19.775-5.437 39.367-11.484 58.828-17.928 28.627-9.48 57.748-17.088 87.14-23.754 16.537-3.749 33.006-7.788 49.525-11.615 19.488-4.515 39.06-8.62 58.864-11.523 8.765-1.287 17.519-2.692 26.3-3.858 5.267-.702 10.577-1.12 15.878-1.537 12.62-.993 25.227-2.25 37.916-2 5.584.11 11.099.711 16.646 1.265 8.598.86 17.006 2.56 25.425 4.355 9.208 1.966 17.996 5.21 26.63 8.826 12.412 5.195 24.06 11.877 35.204 19.38 13.65 9.184 27.215 18.502 40.397 28.353 9.535 7.126 19.619 13.458 29.383 20.252zm-15.918 376.847c7.237 1.236 14.522 2.183 21.76 3.405 24.963 4.216 49.856 8.787 74.323 15.385 18.583 5.015 37.014 10.497 54.865 17.776A229.648 229.648 0 0 1 1600 731.416v33.772a261.226 261.226 0 0 0-28.036-14.436c-11.821-5.218-24.062-9.331-36.394-13.163-22.517-6.995-45.456-12.264-68.684-16.215-14.972-2.545-29.965-5.033-45.07-6.738-3.774-.427-7.522-1.063-11.292-1.52-12.314-1.496-24.633-2.956-36.95-4.427-6.788-.814-13.567-1.727-20.367-2.418-7.558-.765-15.128-1.568-22.71-1.93-15.433-.739-30.874-1.458-46.337-.775-4.048.178-8.101.24-12.153.338-14.19.35-28.317 1.545-42.432 2.986-7.304.744-14.634 1.247-21.941 1.959-5.799.563-11.592 1.192-17.367 1.943-12.804 1.67-25.596 3.438-38.392 5.161-18.57 2.502-37.128 5.074-55.712 7.466-6.776.871-13.6 1.404-20.416 1.945-11.61.921-23.231 1.75-34.85 2.578-9.347.666-18.698 1.325-28.052 1.896-15.673.959-31.346 1.98-47.031 2.707-7.836.363-15.706.357-23.547.112-11.899-.372-23.794-1.118-35.589-2.802-13.035-1.858-25.97-4.3-38.762-7.463-16.5-4.075-32.618-9.373-48.346-15.724-16.198-6.542-32.05-13.882-47.5-22.084-15.88-8.43-31.378-17.525-47.008-26.392-9.907-5.618-19.833-11.195-30.075-16.21-15.648-7.659-32.135-12.144-49.454-13.836-7.317-.715-14.62-1.226-21.983-1.16-11.7.103-23.273 1.443-34.735 3.531-27.552 5.025-53.932 13.8-79.195 25.815-16.755 7.969-32.223 18.027-46.62 29.752-18.856 15.352-36.756 31.79-54.857 47.999-15.844 14.185-31.812 28.229-48.787 41.062-14.347 10.848-29.176 21-45.02 29.587-16.951 9.19-34.532 16.903-52.94 22.76-10.155 3.232-20.423 5.912-30.908 7.744-3.476.607-7.034.848-10.567 1.036-12.486.659-24.795-.74-36.905-3.707-12.293-3.009-24.537-6.213-36.778-9.42-10.039-2.632-19.986-5.614-30.072-8.04-11.317-2.721-22.728-5.075-34.129-7.438-9.171-1.902-18.393-3.556-27.583-5.36-11.685-2.296-23.468-3.966-35.27-5.458-6.381-.807-12.777-1.55-19.183-2.135v-54.869c7 .274 13.991.727 20.981 1.25 13.387 1.002 26.727 2.36 40.034 4.141a1337.524 1337.524 0 0 1 45.053 6.786c6.479 1.092 12.889 2.68 19.256 4.337 12.737 3.315 25.31 7.21 37.88 11.107 11.36 3.52 22.62 7.359 34.14 10.367 9.337 2.441 18.794 4.093 28.367 5.139 2.76.301 5.587.45 8.345.216 9.582-.807 19.208-.845 28.76-2.321 23.232-3.594 45.32-10.531 66.148-21.436 14.163-7.415 27.489-16.14 40.393-25.55 13.307-9.703 25.915-20.27 38.56-30.797 19.06-15.876 37.969-31.935 57.724-46.957 18.03-13.708 37.52-24.858 58.437-33.574 19.212-8.005 38.969-14.275 59.29-18.749 16.387-3.608 32.988-5.586 49.765-5.071 17.276.53 34.355 2.723 50.639 8.93a179.613 179.613 0 0 1 17.33 7.709c7.895 4.01 15.62 8.363 23.365 12.664 18.816 10.455 37.844 20.497 57.799 28.644 6.555 2.676 13.254 5.01 19.94 7.35 16.048 5.616 32.506 9.668 49.278 12.411 11.748 1.92 23.549 3.53 35.451 4.034 9.613.406 19.205 1.382 28.851.957 14.425-.634 28.854-1.185 43.227-2.62 5.291-.528 10.567-1.222 15.839-1.913 13.052-1.718 26.084-3.605 39.153-5.18 11.312-1.365 22.666-2.379 33.996-3.578 7.05-.746 14.09-1.555 21.136-2.326 1.509-.165 3.025-.271 4.536-.432 8.81-.93 17.621-1.874 26.43-2.802 10.578-1.118 21.166-2.147 31.732-3.36 9.32-1.067 18.667-1.572 28.038-1.91 5.816-.206 11.618-.804 17.432-1.089 23.043-1.124 46.094-1.1 69.126.182 10.103.564 20.217 1.152 30.284 2.398 10.804 1.336 21.656 2.287 32.476 3.488 11.327 1.263 22.56 3.159 33.771 5.196 9.963 1.807 19.921 3.644 29.891 5.404 16.202 2.862 32.405 5.719 48.624 8.492zm48.238 75.257c13.27 1.957 26.449 4.493 39.534 7.49a410.278 410.278 0 0 1 37.272 10.444c16.865 5.586 33.154 12.479 48.419 21.654a216.249 216.249 0 0 1 5.059 3.15v33.304a181.05 181.05 0 0 0-35.207-19.082c-22.344-9.096-45.461-15.578-69.172-19.987-14.941-2.781-29.999-4.638-45.129-6.15-21.695-2.17-43.433-3.273-65.213-3.795-7.338-.175-14.69-.108-22.03.067-9.875.239-19.754.539-29.614 1.104-8.082.465-16.129 1.426-24.168 2.481-11.559 1.517-23.015 3.557-34.454 5.753-12.944 2.485-25.66 5.875-38.382 9.263-18.342 4.884-36.716 9.649-54.998 14.745-16.333 4.552-32.561 9.48-48.831 14.25-13.12 3.844-26.269 7.592-39.587 10.658-8.381 1.927-16.896 3.282-25.364 4.821-11.223 2.039-22.576 3.144-33.926 4.042-18.18 1.436-36.402 2.516-54.652 1.723-10.869-.473-21.753-1.027-32.534-2.733-11.776-1.868-23.361-4.505-34.677-8.257-18.085-5.997-35.33-13.847-51.763-23.484-18.152-10.643-35.518-22.43-52.16-35.293-15.623-12.072-31.209-24.186-46.893-36.175-8.04-6.148-16.259-12.059-24.393-18.084-9.57-7.087-19.672-13.378-29.737-19.718-18.893-11.901-39.33-19.684-61.519-22.633-14.613-1.944-29.239-2.23-43.947-.669-35.702 3.795-69.293 14.434-101.086 30.827-14.233 7.338-27.192 16.616-39.025 27.443-14.202 12.993-27.6 26.78-40.95 40.634-14.042 14.574-27.939 29.308-42.808 43.073-7.798 7.22-15.413 14.644-23.344 21.717-10.762 9.6-21.576 19.16-32.675 28.368-22.028 18.275-44.99 35.323-69.109 50.77-6.387 4.092-13.007 7.847-19.678 11.47-10.344 5.623-21.458 8.962-33.17 10.24-7.566.825-15.13 1.015-22.75.403-14.692-1.176-29.08-3.942-43.315-7.623-14.953-3.866-29.68-8.513-44.45-12.998-15.01-4.56-30.01-9.17-45.046-13.64a458.939 458.939 0 0 0-44.243-10.77v-54.863c13.805 1.874 27.494 4.499 41.088 7.566 13.083 2.95 26.088 6.247 39.086 9.555 17.9 4.558 35.755 9.288 53.639 13.914 10.781 2.79 21.574 5.556 32.553 7.479 9.729 1.704 19.484 3.287 29.382 3.585 14.578.437 28.714-1.725 42.487-6.71 16.977-6.146 32.972-14.245 48.497-23.349 19.027-11.157 37.097-23.693 54.374-37.409 9.52-7.554 19.003-15.149 28.205-23.076 12.658-10.903 24.9-22.267 36.91-33.882 13.826-13.37 27.627-26.771 41.723-39.855 9.637-8.945 19.461-17.71 30.235-25.345 12.235-8.672 25.227-15.967 38.943-21.988 18.586-8.162 37.732-14.656 57.58-19.035a267.82 267.82 0 0 1 29.205-4.79 175.602 175.602 0 0 1 28.825-.697c18.32 1.044 36.197 4.26 53.117 11.683 7.885 3.458 15.625 7.228 22.986 11.713 12.32 7.506 24.66 14.98 36.888 22.638 12.66 7.92 25.096 16.2 37.807 24.04 19.176 11.824 38.578 23.273 58.947 32.986 21.996 10.488 44.658 19.14 68.435 24.695 11.102 2.595 22.332 4.358 33.674 5.651 16.424 1.868 32.875 1.458 49.333 1.388 6.836-.029 13.691-.048 20.508-.513 13.387-.915 26.812-.953 40.2-2.101 10.344-.885 20.663-1.881 30.973-3.096 11.082-1.304 22.017-3.413 32.93-5.619 22.82-4.61 45.572-9.55 68.389-14.171 13.892-2.817 27.848-5.311 41.782-7.914 7.214-1.347 14.43-2.712 21.675-3.893 9.491-1.547 18.976-3.156 28.566-4.045 6.806-.628 13.577-1.674 20.39-2.143 14.15-.972 28.318-2.109 42.503-1.668 19.49.61 38.979 1.43 58.423 2.936 12.872.999 25.7 2.54 38.565 3.64 10.353.884 20.63 2.375 30.892 3.89zm-44.305-352.642c14.407 10.747 29.106 21.056 44.464 30.452 22.47 13.75 45.554 26.39 68.675 38.979 15.349 8.354 30.289 17.396 44.966 26.878 5.487 3.544 10.989 7.067 16.483 10.595v53.306a3949.086 3949.086 0 0 1-18.661-12.045c-16.148-10.503-32.985-19.783-50.074-28.647-17.076-8.857-34.334-17.376-51.102-26.82-6.838-3.849-13.68-7.698-20.476-11.62-14.934-8.62-29.026-18.505-42.787-28.85-4.035-3.032-7.606-6.67-11.419-9.998-12.624-11.028-23.86-23.353-34.296-36.433-7.577-9.495-15.13-19.016-23.395-27.926-6.885-7.425-14.149-14.45-22.532-20.264-10.544-7.314-22.112-12.23-34.509-15.322-11.378-2.838-22.893-3.9-34.642-3.459-10.424.393-20.668 1.895-30.866 3.812-14.194 2.67-28.098 6.503-41.917 10.694-26.215 7.953-51.59 18.051-76.52 29.332-15.912 7.204-31.87 14.303-47.754 21.565-14.737 6.737-29.294 13.851-43.51 21.63-17.099 9.358-34.098 18.894-51.174 28.297-17.072 9.406-34.234 18.646-51.857 27.005-16.758 7.946-34.186 14.066-52.22 18.3-12.332 2.895-24.856 4.873-37.6 4.78-16.847-.12-33.278-2.58-49.166-8.393-14.345-5.249-27.745-12.304-40.56-20.54-3.408-2.19-6.808-4.395-10.253-6.524-13.54-8.368-28.293-13.39-43.951-16.004-12.788-2.135-25.647-3.088-38.593-2.458-10.373.503-20.702 1.446-30.955 3.263-28.559 5.059-55.94 13.988-82.75 24.832-19.966 8.073-39.512 17.081-58.45 27.316-20.933 11.313-41.7 22.934-62.45 34.577-12.145 6.812-24.142 13.889-36.779 19.77-11.04 5.136-22.327 9.65-34.38 11.827-17.16 3.101-33.731 1.697-49.534-6.355-10.027-5.108-18.95-11.638-27.154-19.253-8.362-7.76-15.92-16.287-23.623-24.669-7.19-7.824-14.056-15.946-21.234-23.782-9.932-10.84-20.53-20.993-32.358-29.786-13.54-10.066-28.285-17.692-44.773-21.747-6.669-1.64-13.406-2.667-20.27-2.847-10.647-.275-21.242.19-31.851 1.306-22.684 2.388-45.13 6.224-67.547 10.3-5.35.97-10.705 1.91-16.055 2.879v-33.152c10.618-2.148 21.222-4.373 31.839-6.54 18.107-3.696 36.27-7.104 54.526-9.99 10.006-1.582 20.098-2.922 30.222-2.92 11.661 0 23.2 1.51 34.509 4.717 15.553 4.407 29.531 11.82 42.711 21.012 10.846 7.563 20.611 16.35 30.093 25.487 7.29 7.025 14.434 14.202 21.772 21.178 6.233 5.926 12.52 11.814 19.022 17.442 9.038 7.828 19.018 14.274 30.006 19.084 14.49 6.346 29.56 8.401 45.283 6.484 14.985-1.828 29.16-6.36 42.928-12.277 7.669-3.293 15.233-6.862 22.696-10.6 24.896-12.465 49.718-25.078 74.584-37.602a724.814 724.814 0 0 1 60.977-27.29c24.273-9.536 48.826-18.304 74.222-24.48 11.574-2.813 23.275-5.059 35.102-6.336 14.375-1.555 28.82-1.859 43.236-.293 13.929 1.515 27.426 4.727 40.182 10.672 3.9 1.818 7.858 3.528 11.682 5.493 7.226 3.713 14.813 6.552 22.397 9.38 12.876 4.807 26.237 7.686 39.882 9.083 9.569.98 19.168 1.646 28.823 1.035 16.228-1.025 32.186-3.567 47.953-7.543 15.755-3.975 30.982-9.429 45.96-15.647 18.004-7.479 35.766-15.502 53.367-23.879 24.003-11.423 48.25-22.288 73.06-31.877 23.372-9.038 46.647-18.325 70.058-27.252 25.812-9.842 52.214-17.777 79.172-23.892 9.39-2.13 18.838-3.932 28.317-5.51 13.535-2.254 27.234-3.013 40.897-1.838 19.375 1.664 37.92 6.57 54.84 16.466 5.232 3.06 10.3 6.479 15.096 10.178 6.207 4.787 12.282 9.772 17.83 15.341 7.142 7.173 14.254 14.375 21.424 21.518 2.868 2.855 5.827 5.624 8.8 8.37 10.408 9.615 20.557 19.53 31.94 28.025zm39.813-178.308c7.884 4.567 15.674 9.3 23.559 13.87 14.894 8.627 29.822 17.199 44.75 25.773 14.933 8.576 29.557 17.65 43.993 27.033a9269.877 9269.877 0 0 0 22.473 14.565v48.597a854.61 854.61 0 0 1-18.452-12.395c-18.955-13.111-38.66-25.037-58.578-36.62-4.377-2.543-8.638-5.282-12.99-7.87-23.501-13.98-46.478-28.796-69.562-43.446-16.456-10.444-32.794-21.081-49.342-31.38-15.038-9.36-30.145-18.622-46.231-26.174-7.811-3.67-15.831-6.77-24.024-9.387-17.224-5.5-34.973-8.314-52.991-9.132-10.366-.47-20.767-.231-31.153-.169-8.104.051-16.215.188-24.311.534-10.628.455-21.251 1.03-31.86 1.788a917.553 917.553 0 0 0-30.269 2.665 667.745 667.745 0 0 0-27.139 3.38c-15.783 2.307-31.567 4.634-47.29 7.304-20.219 3.434-40.358 7.3-60.24 12.422-17.902 4.61-35.542 10.12-53.323 15.143-21.68 6.128-43.339 12.393-65.481 16.67-12.175 2.354-24.404 4.442-36.75 5.795-11.585 1.272-23.161 2.68-34.82 2.838-11.143.152-22.291.023-33.434-.124-3.535-.049-7.073-.465-10.593-.861-13.136-1.48-26.295-1.866-39.43-.306-10.819 1.281-21.464 3.607-32.002 6.391-18.389 4.858-36.217 11.35-53.956 18.14-24.828 9.509-49.339 19.776-73.608 30.609a2844.262 2844.262 0 0 1-99.979 42.355c-13.858 5.564-27.81 10.89-42.158 15.134-13.86 4.1-27.892 7.489-42.202 9.423-11.797 1.594-23.665 2.137-35.621 1.127-16.316-1.38-31.959-5.218-46.988-11.552a113.73 113.73 0 0 1-14.206-7.207c-8.47-5.066-16.804-10.366-25.067-15.76-8.055-5.257-15.959-10.744-23.914-16.146-10.5-7.134-21.607-13.18-33.211-18.299-8.366-3.69-17.16-6.09-26.008-8.287-18.178-4.512-36.539-4.81-55.082-2.815-17.74 1.906-34.785 6.63-51.727 11.867-23.213 7.18-46.306 14.734-69.682 21.377-5.42 1.542-10.867 2.975-16.325 4.359v-33.17c16.823-4.608 33.357-10.14 49.82-15.907 14.808-5.188 29.539-10.602 44.264-16.028 15.234-5.613 30.827-9.949 46.73-13.149 12.935-2.606 25.992-4.176 39.236-3.616 25.155 1.061 49.067 6.663 71.21 19.031 13.932 7.779 27.534 16.093 41.11 24.462 6.46 3.982 12.998 7.88 19.732 11.373 17.197 8.918 35.366 15.007 54.557 17.999 10.532 1.642 21.11 2.798 31.764 2.462 14.442-.456 28.787-1.876 42.978-4.8 11.927-2.457 23.576-5.853 35.115-9.657 25.258-8.329 49.989-18.02 74.423-28.514 21.405-9.195 42.448-19.16 63.583-28.928 25.734-11.894 51.611-23.474 77.775-34.395 12.616-5.265 25.436-9.99 38.525-13.981 16.517-5.038 33.325-8.546 50.528-10.212 13.106-1.268 26.225-2.478 39.278-4.169 12.545-1.625 25.086-3.316 37.544-5.613 13.19-2.433 26.386-4.834 39.52-7.577 14.381-3.003 28.604-6.638 42.826-10.273 19.128-4.886 38.18-10.066 57.322-14.887 14.729-3.71 29.617-6.665 44.625-9.096 12.506-2.024 25.062-3.6 37.626-5.146 9.8-1.207 19.615-2.447 29.463-3.073 11.367-.723 22.723-1.866 34.137-1.817 13.932.061 27.869-.078 41.8.13 12.41.182 24.791 1.005 37.156 2.188 7.814.746 15.646 1.268 23.457 2.09 16.633 1.75 33.183 4.03 49.489 7.77 8.134 1.869 16.154 4.192 24.083 6.88 17.106 5.799 33.201 13.752 48.861 22.594 17.416 9.828 34.633 20.006 51.95 30.01 14.906 8.61 29.843 17.159 44.737 25.79zm-49.17-115.343c19.58 10.61 39.464 20.65 59.142 31.079 15.654 8.293 31.24 16.72 46.78 25.224 12.658 6.927 25.267 13.936 37.77 21.13 8.116 4.668 16.009 9.72 23.989 14.62 5.43 3.333 10.844 6.691 16.264 10.036v46.144a1390.162 1390.162 0 0 1-16.304-10.49c-15.685-10.251-31.645-20.036-48.022-29.151-21.452-11.942-42.848-23.978-64.337-35.853-17.722-9.792-35.543-19.4-53.312-29.11-3.554-1.94-7.064-3.961-10.601-5.928a78799.554 78799.554 0 0 0-39.161-21.753c-12.179-6.757-24.507-13.224-37.288-18.767-9.284-4.028-18.7-7.76-28.473-10.51-13.151-3.703-26.19-7.798-39.48-11.019-15.991-3.876-31.993-7.653-48.168-10.694-8.212-1.541-16.417-3.09-24.72-4.085-9.303-1.118-18.583-2.395-27.87-3.625-20.172-2.671-40.384-2.94-60.64-1.12-6.809.613-13.622 1.224-20.443 1.663-13.41.86-26.707 2.632-39.984 4.586-12.028 1.767-23.918 4.259-35.765 6.973-19.011 4.353-37.69 9.93-56.481 15.09-18.058 4.96-36.026 10.266-54.158 14.94-25.242 6.502-50.582 12.62-76.109 17.943-11.393 2.376-22.758 4.933-34.05 7.742-24.146 6.008-47.48 14.327-69.87 25.206-13.657 6.636-27.27 13.367-40.912 20.039a57713.308 57713.308 0 0 1-56.625 27.652c-12.965 6.323-25.854 12.81-38.935 18.885-20.206 9.379-40.731 18.006-61.882 25.1-11.76 3.944-23.535 7.787-35.565 10.874-10.805 2.773-21.677 5.305-32.738 6.518-12.063 1.327-24.203 2.458-36.385 1.175-2.013-.215-4.044-.275-6.066-.39-16.272-.905-32.067-4.287-47.646-8.932-19.037-5.673-36.91-13.913-54.019-23.911-7.212-4.214-14.377-8.51-21.683-12.558-10.629-5.886-21.46-11.382-32.697-16.057-10.124-4.212-20.645-6.936-31.484-8.3-24.408-3.075-48.532-1.489-72.287 5.003-17.113 4.677-33.836 10.486-50.203 17.336-15.64 6.547-31.265 13.143-47.035 19.363-14.827 5.848-29.765 11.421-45.05 16.013-1.181.353-2.367.687-3.551 1.033v-33.032c.931-.289 1.866-.564 2.796-.86 4.335-1.384 8.628-2.912 12.887-4.514a715.129 715.129 0 0 0 53.128-22.48c13.279-6.252 26.548-12.531 39.904-18.615 13.593-6.192 27.44-11.825 41.589-16.6 14.903-5.031 30.183-8.458 45.929-9.822 7.58-.657 15.128-1.147 22.737-1.147 15.156 0 29.62 3.214 43.711 8.582 11.855 4.515 23.294 9.878 34.408 15.969 10.208 5.596 20.474 11.087 30.705 16.643 5.346 2.902 10.872 5.385 16.542 7.602 9.428 3.69 18.822 7.445 28.473 10.537 14.719 4.717 29.61 8.612 44.95 10.816 7.284 1.047 14.601 1.678 21.91 2.18 7.05.486 14.153.46 21.23-.484 5.51-.734 11.071-1.028 16.588-1.877 9.52-1.465 18.897-3.502 28.241-5.802 9.6-2.364 19.022-5.289 28.415-8.314 5.536-1.78 10.984-3.856 16.397-5.985 10.361-4.081 20.711-8.181 30.674-13.208 7.227-3.646 14.683-6.844 21.888-10.533 20.498-10.494 41.012-20.965 61.345-31.775 19.216-10.216 38.246-20.785 57.289-31.321 14.185-7.851 28.573-15.284 43.582-21.434 21.545-8.829 43.215-17.298 65.559-23.999 17.693-5.305 35.242-11.1 52.82-16.785 18.78-6.078 37.512-12.293 56.273-18.42 19.486-6.364 38.966-12.754 58.765-18.103 15.892-4.293 31.932-7.864 48.238-10.269 13.03-1.922 26.094-3.388 39.219-4.515C1096.8.985 1107.402.407 1118.04.1c8.626-.249 17.235-.029 25.818.558 8.33.57 16.618 1.8 24.798 3.51a391.868 391.868 0 0 1 50.397 14.124c10.019 3.542 20.076 6.962 30.008 10.774 17.962 6.892 35.71 14.304 53.486 21.64 18.022 7.44 35.577 15.873 52.535 25.561 20.215 11.55 40.503 22.981 60.973 34.078z"/>
</svg>
